<svg width="56" height="57" viewBox="0 0 56 57" fill="none" xmlns="http://www.w3.org/2000/svg">
<rect x="0.5" y="1" width="55" height="55" rx="7.5" stroke="#94389B"/>
<g clip-path="url(#clip0_33_22)">
<path d="M39.8615 21.5143C39.7241 21.3174 39.503 21.1957 39.2629 21.1854L24.3755 20.5437C23.9483 20.525 23.5914 20.8548 23.5731 21.2799C23.555 21.7049 23.8842 22.064 24.3093 22.0823L38.1888 22.6806L35.4598 31.1953H23.3154L21.1214 19.2488C21.0731 18.9869 20.8934 18.7685 20.6455 18.6712L17.052 17.2595C16.6559 17.1044 16.209 17.299 16.0534 17.6945C15.8982 18.0903 16.0927 18.5375 16.4885 18.693L19.6837 19.9483L21.9165 32.1045C21.9838 32.4699 22.3023 32.7354 22.674 32.7354H23.0444L22.1986 35.0846C22.1278 35.2814 22.157 35.4999 22.2775 35.6709C22.3978 35.8419 22.5934 35.9436 22.8023 35.9436H23.3955C23.0279 36.3527 22.8023 36.8914 22.8023 37.4837C22.8023 38.7576 23.8388 39.7938 25.1124 39.7938C26.386 39.7938 27.4226 38.7576 27.4226 37.4837C27.4226 36.8914 27.1969 36.3527 26.8294 35.9436H31.8661C31.4983 36.3527 31.2727 36.8914 31.2727 37.4837C31.2727 38.7576 32.309 39.7938 33.5829 39.7938C34.8568 39.7938 35.893 38.7576 35.893 37.4837C35.893 36.8914 35.6674 36.3527 35.2999 35.9436H36.0214C36.3758 35.9436 36.6631 35.6563 36.6631 35.3019C36.6631 34.9475 36.3758 34.6602 36.0214 34.6602H23.7154L24.4083 32.7351H36.0213C36.3562 32.7351 36.6525 32.5188 36.7545 32.2002L39.963 22.1896C40.0367 21.9611 39.9989 21.7113 39.8615 21.5143ZM25.1125 38.5107C24.5462 38.5107 24.0857 38.0502 24.0857 37.484C24.0857 36.9177 24.5462 36.4572 25.1125 36.4572C25.6787 36.4572 26.1392 36.9177 26.1392 37.484C26.1392 38.0502 25.6787 38.5107 25.1125 38.5107ZM33.5829 38.5107C33.0166 38.5107 32.5562 38.0502 32.5562 37.484C32.5562 36.9177 33.0166 36.4572 33.5829 36.4572C34.1491 36.4572 34.6096 36.9177 34.6096 37.484C34.6096 38.0502 34.1491 38.5107 33.5829 38.5107Z" fill="#94389B"/>
</g>
<defs>
<clipPath id="clip0_33_22">
<rect width="24" height="24" fill="white" transform="translate(16 16.5)"/>
</clipPath>
</defs>
</svg>
