<svg width="98" height="98" viewBox="0 0 98 98" fill="none" xmlns="http://www.w3.org/2000/svg">
<g filter="url(#filter0_d_438_29)">
<rect x="25.5" y="25.5" width="47" height="47" rx="7.5" stroke="#94389B" shape-rendering="crispEdges"/>
</g>
<path d="M57.0645 40H40.9355C39.871 40 39 40.9 39 42C39 43.1 39.871 44 40.9355 44H57.0645C58.129 44 59 43.1 59 42C59 40.9 58.129 40 57.0645 40Z" fill="#94389B"/>
<path d="M57.0645 47H40.9355C39.871 47 39 47.9 39 49C39 50.1 39.871 51 40.9355 51H57.0645C58.129 51 59 50.1 59 49C59 47.9 58.129 47 57.0645 47Z" fill="#94389B"/>
<path d="M57.0645 53H40.9355C39.871 53 39 53.9 39 55C39 56.1 39.871 57 40.9355 57H57.0645C58.129 57 59 56.1 59 55C59 53.9 58.129 53 57.0645 53Z" fill="#94389B"/>
<defs>
<filter id="filter0_d_438_29" x="0.6" y="0.6" width="96.8" height="96.8" filterUnits="userSpaceOnUse" color-interpolation-filters="sRGB">
<feFlood flood-opacity="0" result="BackgroundImageFix"/>
<feColorMatrix in="SourceAlpha" type="matrix" values="0 0 0 0 0 0 0 0 0 0 0 0 0 0 0 0 0 0 127 0" result="hardAlpha"/>
<feOffset/>
<feGaussianBlur stdDeviation="12.2"/>
<feComposite in2="hardAlpha" operator="out"/>
<feColorMatrix type="matrix" values="0 0 0 0 0 0 0 0 0 0 0 0 0 0 0 0 0 0 0.06 0"/>
<feBlend mode="normal" in2="BackgroundImageFix" result="effect1_dropShadow_438_29"/>
<feBlend mode="normal" in="SourceGraphic" in2="effect1_dropShadow_438_29" result="shape"/>
</filter>
</defs>
</svg>
