<svg width="56" height="57" viewBox="0 0 56 57" fill="none" xmlns="http://www.w3.org/2000/svg">
<rect x="0.5" y="1" width="55" height="55" rx="7.5" stroke="#94389B"/>
<path d="M28 39.1648C27.6583 39.1648 27.3289 39.041 27.0722 38.8162C26.1026 37.9684 25.1679 37.1717 24.3432 36.4689L24.339 36.4653C21.9211 34.4048 19.8331 32.6254 18.3804 30.8725C16.7564 28.9129 16 27.0549 16 25.0252C16 23.0532 16.6762 21.2338 17.9039 19.9021C19.1463 18.5546 20.851 17.8125 22.7046 17.8125C24.09 17.8125 25.3587 18.2505 26.4754 19.1142C27.039 19.5502 27.5499 20.0837 28 20.7061C28.4502 20.0837 28.9609 19.5502 29.5247 19.1142C30.6415 18.2505 31.9102 17.8125 33.2956 17.8125C35.149 17.8125 36.8538 18.5546 38.0962 19.9021C39.3239 21.2338 40 23.0532 40 25.0252C40 27.0549 39.2437 28.9129 37.6198 30.8723C36.167 32.6254 34.0793 34.4046 31.6617 36.4649C30.8355 37.1688 29.8993 37.9667 28.9276 38.8165C28.6711 39.041 28.3415 39.1648 28 39.1648ZM22.7046 19.2184C21.2483 19.2184 19.9106 19.7996 18.9374 20.855C17.9497 21.9263 17.4057 23.4073 17.4057 25.0252C17.4057 26.7323 18.0402 28.259 19.4627 29.9755C20.8376 31.6346 22.8827 33.3774 25.2507 35.3954L25.255 35.399C26.0829 36.1046 27.0213 36.9044 27.998 37.7584C28.9805 36.9027 29.9204 36.1016 30.7499 35.395C33.1176 33.377 35.1625 31.6346 36.5374 29.9755C37.9598 28.259 38.5943 26.7323 38.5943 25.0252C38.5943 23.4073 38.0503 21.9263 37.0626 20.855C36.0896 19.7996 34.7516 19.2184 33.2956 19.2184C32.2288 19.2184 31.2494 19.5575 30.3846 20.2262C29.6139 20.8224 29.077 21.576 28.7622 22.1034C28.6004 22.3746 28.3155 22.5364 28 22.5364C27.6845 22.5364 27.3996 22.3746 27.2377 22.1034C26.9231 21.576 26.3863 20.8224 25.6154 20.2262C24.7506 19.5575 23.7712 19.2184 22.7046 19.2184Z" fill="#94389B"/>
</svg>
