<svg width="56" height="57" viewBox="0 0 56 57" fill="none" xmlns="http://www.w3.org/2000/svg">
<rect x="0.5" y="1" width="55" height="55" rx="7.5" stroke="#94389B"/>
<g clip-path="url(#clip0_33_29)">
<path d="M39.7267 38.9071L33.8695 33.0501C35.3254 31.2993 36.2025 29.0512 36.2025 26.6016C36.2025 21.0315 31.6711 16.5 26.1013 16.5C20.5314 16.5 16 21.0315 16 26.6016C16 32.1712 20.5314 36.7024 26.1013 36.7024C28.5508 36.7024 30.7991 35.8254 32.5498 34.3695L38.4071 40.2267C38.5893 40.4089 38.8281 40.5 39.0669 40.5C39.3056 40.5 39.5445 40.4089 39.7268 40.2267C40.0912 39.8623 40.0912 39.2715 39.7267 38.9071ZM17.8662 26.6016C17.8662 22.0606 21.5604 18.3662 26.1013 18.3662C30.6421 18.3662 34.3362 22.0606 34.3362 26.6016C34.3362 31.1422 30.6421 34.8362 26.1013 34.8362C21.5604 34.8362 17.8662 31.1422 17.8662 26.6016Z" fill="#94389B"/>
</g>
<defs>
<clipPath id="clip0_33_29">
<rect width="24" height="24" fill="white" transform="translate(16 16.5)"/>
</clipPath>
</defs>
</svg>
